<svg width="144.966797" height="30.244141" viewBox="0 0 144.967 30.2441" fill="none" xmlns="http://www.w3.org/2000/svg" xmlns:xlink="http://www.w3.org/1999/xlink">
	<desc>
			Created with Pixso.
	</desc>
	<defs/>
	<path id="Lorem" d="M33.7 29.18Q36.17 30.24 39.09 30.24Q42.06 30.24 44.55 29.15Q45.36 28.8 46.11 28.33Q47.07 27.74 47.89 27.01Q49.74 25.36 50.93 22.99Q52.67 19.54 52.67 15.12Q52.67 10.69 50.93 7.26Q49.73 4.86 47.86 3.2Q47.05 2.48 46.11 1.9Q45.36 1.44 44.55 1.09Q42.06 0 39.09 0Q36.17 0 33.7 1.05Q32.86 1.42 32.06 1.9Q31.12 2.48 30.31 3.2Q28.44 4.86 27.24 7.26Q25.52 10.69 25.52 15.12Q25.52 19.54 27.24 22.99Q28.43 25.36 30.28 27.01Q31.11 27.74 32.06 28.33Q32.86 28.82 33.7 29.18ZM-0.01 28.76L-0.01 29.52L21.95 29.52L21.95 20.74L20.98 20.74L18.03 28.66L7.26 28.66L7.26 2.02L10.58 1.51L10.58 0.72L-0.01 0.72L-0.01 1.51L3.31 2.02L3.31 28.23L-0.01 28.76ZM75.01 28.91Q76.02 29.88 78.04 29.88Q79.09 29.88 80.01 29.55Q80.24 29.48 80.45 29.38Q81.57 28.87 82.62 27.68L82 27.03Q81.46 27.58 80.85 27.92Q80.23 28.26 79.7 28.26Q79.32 28.26 79.04 28.1Q78.73 27.92 78.53 27.54Q78.15 26.82 77.86 24.8L77.39 21.71Q77.04 19.51 75.81 18.05Q75.56 17.76 75.29 17.5Q75.27 17.48 75.25 17.46Q73.59 15.91 70.84 15.52L70.84 15.3Q75.42 14.7 77.2 12.15Q78.33 10.53 78.33 8.13Q78.33 5.6 77.12 3.94Q76.55 3.15 75.7 2.55Q73.07 0.72 67.21 0.72L57.13 0.72L57.13 1.51L60.44 2.02L60.44 28.23L57.13 28.76L57.13 29.52L67.71 29.52L67.71 28.76L64.4 28.23L64.4 15.55L67.21 15.55Q69.96 15.55 71.27 16.93Q71.28 16.94 71.29 16.94Q72.6 18.32 72.96 20.77L73.65 25.6Q74.01 27.94 75.01 28.91ZM84.38 28.76L84.38 29.52L106.84 29.52L106.84 20.74L105.9 20.74L102.95 28.66L91.65 28.66L91.65 15.44L96.3 15.44L98.45 20.74L99.39 20.74L99.39 9.36L98.45 9.36L96.33 14.58L91.65 14.58L91.65 1.62L102.31 1.62L105.08 8.96L106.05 8.96L106.05 0.72L84.38 0.72L84.38 1.51L87.69 2.02L87.69 28.23L84.38 28.76ZM115.66 2.02L126.39 29.88L127.04 29.88L137.69 3.1L137.69 28.23L134.38 28.76L134.38 29.52L144.96 29.52L144.96 28.76L141.65 28.23L141.65 2.02L144.96 1.51L144.96 0.72L137.69 0.72L128.47 23.83L119.44 0.72L111.49 0.72L111.49 1.51L114.8 2.02L114.8 27.32L111.42 28.76L111.42 29.52L119.11 29.52L119.11 28.76L115.66 27.32L115.66 2.02ZM42.16 28.86Q40.73 29.41 39.09 29.41Q37.3 29.41 35.77 28.78Q35.06 28.48 34.4 28.04Q34.34 28 34.29 27.96Q32.32 26.6 31.17 24.06Q29.98 21.45 29.98 17.89L29.98 12.34Q29.98 8.79 31.17 6.17Q32.32 3.64 34.29 2.27Q34.34 2.23 34.4 2.19Q35.06 1.76 35.77 1.46Q37.3 0.82 39.09 0.82Q40.73 0.82 42.16 1.37Q42.99 1.69 43.74 2.19Q43.87 2.28 43.99 2.37Q45.89 3.72 47.01 6.17Q48.2 8.79 48.2 12.34L48.2 17.89Q48.2 21.45 47.01 24.06Q45.89 26.51 43.99 27.87Q43.87 27.96 43.74 28.04Q42.99 28.54 42.16 28.86ZM71.83 13.7Q70.49 14.68 68.43 14.68L64.4 14.68L64.4 1.62L67.21 1.62Q71.01 1.62 72.68 3.51Q73.98 4.98 73.98 7.6L73.98 8.35Q73.98 11.48 72.52 13.08Q72.2 13.43 71.83 13.7Z" fill="#FFFFFF" fill-opacity="1.000000" fill-rule="evenodd"/>
</svg>
